<svg height="16px" width="16px" viewBox="0 0 512 512"><path fill="#828282" d="M25.701,0h460.897C500.509,0,512,11.492,512,25.707v460.892   c0,13.91-11.491,25.401-25.401,25.401H25.701C11.492,512,0,500.509,0,486.599V25.707C0,11.492,11.492,0,25.701,0L25.701,0z    M179.33,324.495c-39.611,6.355-60.176-13.6-65.922-48.685c-5.146-32.661,3.328-69.255,25.701-82.26   c14.52-8.769,35.085-9.074,49.294-3.328c32.057,12.701,40.531,61.695,52.022,95.261c12.091,35.994,36.593,66.232,75.905,71.979   c28.729,4.236,57.148,4.236,84.989-1.809c19.655-3.938,39.312-19.057,42.929-43.549c9.982-66.232-53.532-69.865-86.188-78.633   c-33.565-9.073-25.091-37.803-6.944-45.667c8.454-3.627,25.401-3.022,32.967,0c14.798,5.446,16.018,16.028,16.927,23.289   l41.42-4.842c0-3.932-0.889-11.492-2.418-16.633c-5.436-15.724-16.328-26.006-32.347-32.057   c-24.802-9.073-51.112-8.769-75.604-0.904c-18.747,6.351-34.785,20.865-39.022,43.549c-12.69,66.532,52.022,68.95,83.17,77.724   c32.656,9.673,27.221,32.966,19.057,40.221c-9.074,7.864-26.001,8.464-37.493,8.464c-14.819,0.31-30.857-2.419-43.549-10.283   c-39.332-24.192-34.475-88.001-65.333-130.041c-37.193-50.199-140.318-47.781-169.048,12.101   c-11.802,24.192-15.729,55.34-11.192,85.583c4.237,30.248,18.747,50.504,37.503,63.515c29.628,20.864,103.115,18.746,126.708-9.073   c-3.927-7.865-10.283-26.621-13-36.594C211.997,308.777,200.206,321.478,179.33,324.495L179.33,324.495z" /></svg>
